# xmcd
# 
# Track frame offsets:
#     150
#     15595
#     31479
#     50811
#     68231
#     83572
#     99358
#     120523
#     138748
#     156678
#     178381
# 
# Disc length: 2608
# 
# Revision: 3
# Processed by: cddbd v1.5.2PL0 Copyright (c) Steve Scherf et al.
# Submitted via: fre:ac v1.0.31
# 
DISCID=9a0a2e0b
DTITLE=Joe Cocker - Hard Knocks
DYEAR=2011
DGENRE=Rock/Pop
TTITLE0=Hard Knocks
TTITLE1=Get On
TTITLE2=Unforgiven
TTITLE3=The Fall
TTITLE4=So It Goes
TTITLE5=Runaway Train
TTITLE6=Stay The Same
TTITLE7=Thankful
TTITLE8=So
TTITLE9=I Hope
TTITLE10=Forever Changed
EXTD=
EXTT0=
EXTT1=
EXTT2=
EXTT3=
EXTT4=
EXTT5=
EXTT6=
EXTT7=
EXTT8=
EXTT9=
EXTT10=
PLAYORDER=
